<?xml version="1.0" encoding="utf-8"?>
<!-- Generator: Adobe Illustrator 17.1.0, SVG Export Plug-In . SVG Version: 6.00 Build 0)  -->
<!DOCTYPE svg PUBLIC "-//W3C//DTD SVG 1.1//EN" "http://www.w3.org/Graphics/SVG/1.1/DTD/svg11.dtd">
<svg version="1.1" xmlns="http://www.w3.org/2000/svg" xmlns:xlink="http://www.w3.org/1999/xlink" x="0px" y="0px"
	 viewBox="0 0 120 16.7" enable-background="new 0 0 120 16.7" xml:space="preserve">
<g id="Logo_kleur">
	<path fill="#231F20" d="M14.548,0.147H0.872C0.29,0.147,0,1.185,0,2.223C0,3.26,0.29,4.298,0.872,4.298h4.762v11.53
		c0,0.582,1.038,0.872,2.075,0.872c1.038,0,2.076-0.29,2.076-0.872V4.298h4.762c0.581,0,0.872-1.037,0.872-2.075
		C15.42,1.185,15.129,0.147,14.548,0.147z"/>
	<path fill="#231F20" d="M15.953,8.35c0-4.612,3.738-8.35,8.35-8.35c4.611,0,8.35,3.738,8.35,8.35c0,4.611-3.738,8.349-8.35,8.349
		C19.691,16.7,15.953,12.961,15.953,8.35z M24.303,12.55c2.319,0,4.199-1.88,4.199-4.199c0-2.32-1.88-4.2-4.199-4.2
		c-2.32,0-4.2,1.88-4.2,4.2C20.103,10.669,21.983,12.55,24.303,12.55z"/>
	<path fill="#231F20" d="M59.493,7.119c0-3.932-3.187-7.119-7.12-7.119c-1.971,0-3.755,0.803-5.044,2.097
		C46.04,0.802,44.256,0,42.285,0c-3.932,0-7.12,3.188-7.12,7.119l0,8.708c0,0.582,1.038,0.872,2.076,0.872
		c1.037,0,2.075-0.29,2.075-0.872V7.119c0-1.64,1.33-2.969,2.97-2.969c1.64,0,2.969,1.329,2.969,2.969l0,8.708
		c0,0.582,1.038,0.872,2.075,0.872c1.038,0,2.075-0.29,2.075-0.872V7.119c0-1.64,1.33-2.969,2.97-2.969
		c1.64,0,2.969,1.329,2.969,2.969v8.708c0,0.582,1.038,0.872,2.075,0.872c1.037,0,2.075-0.29,2.075-0.872V7.119z"/>
	<path fill="#231F20" d="M120,7.119C120,3.188,116.813,0,112.88,0c-1.971,0-3.754,0.803-5.044,2.097
		C106.548,0.802,104.764,0,102.792,0c-3.932,0-7.12,3.188-7.12,7.119v8.708c0,0.582,1.038,0.872,2.075,0.872
		c1.038,0,2.075-0.29,2.075-0.872V7.119c0-1.64,1.329-2.969,2.969-2.969c1.64,0,2.969,1.329,2.969,2.969v8.708
		c0,0.582,1.038,0.872,2.075,0.872c1.037,0,2.075-0.29,2.075-0.872V7.119c0-1.64,1.329-2.969,2.968-2.969
		c1.64,0,2.97,1.329,2.97,2.969v8.708c0,0.582,1.038,0.872,2.075,0.872c1.037,0,2.075-0.29,2.075-0.872V7.119z"/>
	<path fill="#231F20" d="M75.056,0.147H61.379c-0.581,0-0.872,1.038-0.872,2.076c0,1.037,0.291,2.075,0.872,2.075h4.763v11.53
		c0,0.582,1.038,0.872,2.075,0.872c1.038,0,2.075-0.29,2.075-0.872V4.298h4.763c0.581,0,0.872-1.037,0.872-2.075
		C75.927,1.185,75.636,0.147,75.056,0.147z"/>
	<path fill="#231F20" d="M76.46,8.35c0-4.612,3.739-8.35,8.35-8.35s8.35,3.738,8.35,8.35c0,4.611-3.739,8.349-8.35,8.349
		S76.46,12.961,76.46,8.35z M84.811,12.55c2.319,0,4.2-1.88,4.2-4.199c0-2.32-1.881-4.2-4.2-4.2c-2.32,0-4.199,1.88-4.199,4.2
		C80.612,10.669,82.49,12.55,84.811,12.55z"/>
</g>
<g id="Layer_2">
</g>
</svg>
